<svg width="796" height="174" viewBox="0 0 796 174" fill="none" xmlns="http://www.w3.org/2000/svg">
<path d="M460.527 52.2C467.641 23.6366 450.293 0 407.797 0H315.692L281.183 139.699L301.215 174.062H366.737C409.669 174.062 442.929 154.043 451.479 119.243C455.784 101.406 450.792 88.9333 439.56 82.6968V82.2602C450.212 75.3642 457.738 64.5738 460.527 52.2ZM404.365 118.12C402.618 125.417 397.688 132.901 377.283 132.901H335.473L342.774 102.966H384.396C404.552 102.903 406.05 110.574 404.115 118.12H404.365ZM412.727 53.1355C411.229 58.7484 406.923 65.6086 389.326 65.6086H351.885L358.125 41.286H395.566C413.351 41.1613 414.225 46.8989 412.727 53.1355Z" fill="#14A0FF"/>
<path d="M518.498 106.645H602.367L611.914 65.4839H528.607L535.097 41.1613H617.593L627.14 0H491.728L448.795 174H602.179L612.226 132.839H512.32L518.498 106.645Z" fill="#14A0FF"/>
<path d="M638.872 0L629.262 41.1613H679.371L646.485 174H699.09L732.038 41.1613H785.704L796 0H638.872Z" fill="#14A0FF"/>
<path d="M55.0386 174H1.99686L24.9608 81.0753L30.265 67.043L16.2245 81.0753L0.62402 96.8538L0 50.4538L55.0386 0H97.9087L55.0386 174Z" fill="white"/>
<path d="M246.55 101.905L229.639 73.2796L311.698 0H235.256L204.055 29.9355L98.2208 126.914L47.4255 174H119.749L174.102 125.542L192.385 156.725C198.626 164.583 207.424 174.125 244.741 174.125H288.422L246.613 101.843L246.55 101.905Z" fill="white"/>
<path d="M198.189 20.3312V19.957C193.507 13.429 187.259 8.18073 180.02 4.69378C172.78 1.20682 164.78 -0.407131 156.754 2.2729e-05H100.28L142.401 71.5957L198.189 20.3312Z" fill="white"/>
</svg>
